<!DOCTYPE svg PUBLIC "-//W3C//DTD SVG 1.1//EN" "http://www.w3.org/Graphics/SVG/1.1/DTD/svg11.dtd">
<!-- Uploaded to: SVG Repo, www.svgrepo.com, Transformed by: SVG Repo Mixer Tools -->
<svg width="800px" height="800px" viewBox="0 0 64 64" data-name="Layer 1" id="Layer_1" xmlns="http://www.w3.org/2000/svg" fill="#ffffff" transform="matrix(-1, 0, 0, -1, 0, 0)" stroke="#ffffff" stroke-width="0.00064">
<g id="SVGRepo_bgCarrier" stroke-width="0"/>
<g id="SVGRepo_tracerCarrier" stroke-linecap="round" stroke-linejoin="round"/>
<g id="SVGRepo_iconCarrier">
<defs>
<style>.cls-1{fill:#ffffff;}</style>
</defs>
<title/>
<path class="cls-1" d="M46.58,49.47a1,1,0,0,1-.7-.28L44.69,48a6.29,6.29,0,0,1-1.13-1.5l-1.19-2.26L16.51,22.37a6,6,0,0,1,3.85-10.51h0a6,6,0,0,1,4.19,1.74,3.59,3.59,0,0,1,.32.36L47.06,40l2.44,1.41a5.56,5.56,0,0,1,1.26.95l1,1a1,1,0,0,1,0,1.41l-4.44,4.44A1,1,0,0,1,46.58,49.47ZM20.36,13.86A3.93,3.93,0,0,0,17.56,15a4,4,0,0,0,.24,5.82l26,22a1,1,0,0,1,.24.29l1.28,2.43a3.75,3.75,0,0,0,.75,1l.48.47,3-3-.25-.25a4.06,4.06,0,0,0-.84-.64l-2.6-1.49a.92.92,0,0,1-.26-.22l-3.42-4h0L23.39,15.26,23.16,15a4,4,0,0,0-2.78-1.15Z"/>
<path class="cls-1" d="M46.58,49.47a1,1,0,0,1-.7-.28L44.69,48a6.29,6.29,0,0,1-1.13-1.5l-1.19-2.26-8-6.77a1,1,0,0,1-.32-1,6.42,6.42,0,0,1,1.64-2.87,6.62,6.62,0,0,1,3.75-1.82,1,1,0,0,1,.91.34L47.06,40l2.44,1.41a5.56,5.56,0,0,1,1.26.95h0l1,.95a1,1,0,0,1,0,1.41l-4.44,4.44A1,1,0,0,1,46.58,49.47Zm-10.39-13,7.62,6.46a1,1,0,0,1,.24.29l1.28,2.43a3.75,3.75,0,0,0,.75,1l.48.47,3-3-.25-.25a4.06,4.06,0,0,0-.84-.64l-2.6-1.49a.92.92,0,0,1-.26-.22l-6.44-7.57A4.47,4.47,0,0,0,37.11,35,4.27,4.27,0,0,0,36.19,36.42Z"/>
<path class="cls-1" d="M46.58,49.47a1,1,0,0,1-.7-.28L44.69,48a6.29,6.29,0,0,1-1.13-1.5l-1.19-2.26-3.56-3a1,1,0,0,1-.32-1,6.37,6.37,0,0,1,1.64-2.87,6.2,6.2,0,0,1,2.56-1.54,1,1,0,0,1,1.06.3L47.06,40l2.44,1.41a5.56,5.56,0,0,1,1.26.95h0l1,.95a1,1,0,0,1,0,1.41l-4.44,4.44A1,1,0,0,1,46.58,49.47Zm-6-9.29,3.19,2.7a1,1,0,0,1,.24.29l1.28,2.43a3.75,3.75,0,0,0,.75,1l.48.47,3-3-.25-.25a4.06,4.06,0,0,0-.84-.64l-2.6-1.49a.92.92,0,0,1-.26-.22l-3-3.47a4.27,4.27,0,0,0-1.15.81A4.31,4.31,0,0,0,40.62,40.18Z"/>
<path class="cls-1" d="M17.47,52.14a5.48,5.48,0,0,1,0-11,5.32,5.32,0,0,1,2.81.79,5.47,5.47,0,0,1,2.66,4.69,5.49,5.49,0,0,1-5.47,5.47Zm0-9A3.49,3.49,0,0,0,14,46.67a3.42,3.42,0,0,0,1.32,2.71A3.55,3.55,0,0,0,20,49a3.47,3.47,0,0,0-.76-5.34A3.4,3.4,0,0,0,17.47,43.19Z"/>
<path class="cls-1" d="M20.75,50.7a1,1,0,0,1-.51-.14,5.48,5.48,0,0,1-2.67-4.7A5.4,5.4,0,0,1,19,42.15,1,1,0,0,1,20.27,42a5.48,5.48,0,0,1,2.67,4.7,5.4,5.4,0,0,1-1.46,3.71A1,1,0,0,1,20.75,50.7ZM20,44.25a3.54,3.54,0,0,0-.39,1.61,3.46,3.46,0,0,0,1,2.41,3.48,3.48,0,0,0-.59-4Z"/>
<path class="cls-1" d="M14.69,51.17a1,1,0,0,1-.62-.21A5.46,5.46,0,0,1,13.38,43a1,1,0,0,1,1.37-.13,5.46,5.46,0,0,1,.68,7.94A1,1,0,0,1,14.69,51.17Zm-.42-5.86A3.52,3.52,0,0,0,14,46.67a3.46,3.46,0,0,0,.56,1.89,3.46,3.46,0,0,0-.28-3.25Z"/>
</g>
</svg>