<svg width="30" height="30" viewBox="0 0 17 16" fill="#000000" xmlns="http://www.w3.org/2000/svg">
<mask id="mask0_73_3489" style="mask-type:alpha" maskUnits="userSpaceOnUse" x="0" y="0" width="17" height="16">
<rect x="0.277954" width="16.0111" height="16" fill="#000000"/>
</mask>
<g mask="url(#mask0_73_3489)">
<path d="M7.78453 11.1665H8.78519V7.33315H7.78453V11.1665ZM8.28486 6.19214C8.43753 6.19214 8.56551 6.14054 8.66878 6.03734C8.77205 5.93414 8.82369 5.80625 8.82369 5.65369C8.82369 5.50113 8.77205 5.37325 8.66878 5.27004C8.56551 5.16684 8.43753 5.11524 8.28486 5.11524C8.13219 5.11524 8.00422 5.16684 7.90095 5.27004C7.79767 5.37325 7.74604 5.50113 7.74604 5.65369C7.74604 5.80625 7.79767 5.93414 7.90095 6.03734C8.00422 6.14054 8.13219 6.19214 8.28486 6.19214ZM8.28598 14.3331C7.40941 14.3331 6.58549 14.1669 5.8142 13.8345C5.04289 13.502 4.37197 13.0509 3.80143 12.481C3.23088 11.9111 2.77919 11.2409 2.44637 10.4705C2.11355 9.70008 1.94714 8.87689 1.94714 8.00094C1.94714 7.12498 2.11348 6.30163 2.44616 5.53087C2.77883 4.7601 3.23031 4.08965 3.8006 3.51951C4.37089 2.94935 5.04152 2.49798 5.81248 2.16539C6.58343 1.8328 7.40718 1.6665 8.28374 1.6665C9.16031 1.6665 9.98424 1.83273 10.7555 2.16517C11.5268 2.49762 12.1978 2.94878 12.7683 3.51867C13.3388 4.08857 13.7905 4.75873 14.1234 5.52915C14.4562 6.29957 14.6226 7.12275 14.6226 7.9987C14.6226 8.87466 14.4562 9.69802 14.1236 10.4688C13.7909 11.2395 13.3394 11.91 12.7691 12.4801C12.1988 13.0503 11.5282 13.5017 10.7572 13.8343C9.9863 14.1668 9.16254 14.3331 8.28598 14.3331ZM8.28486 13.3332C9.77479 13.3332 11.0368 12.8165 12.0708 11.7832C13.1049 10.7498 13.6219 9.48871 13.6219 7.99982C13.6219 6.51093 13.1049 5.24982 12.0708 4.21649C11.0368 3.18315 9.77479 2.66649 8.28486 2.66649C6.79494 2.66649 5.53295 3.18315 4.4989 4.21649C3.46485 5.24982 2.94782 6.51093 2.94782 7.99982C2.94782 9.48871 3.46485 10.7498 4.4989 11.7832C5.53295 12.8165 6.79494 13.3332 8.28486 13.3332Z" fill="#000000"/>
</g>
</svg>
